{"title":"Ip Man 2 Legend of the Grandmaster (2010) 720p Blu-Ray x264[Dual","uid":10918503,"size":1038060702,"categoryP":"video","categoryS":"hd___movies","magnet":"?xt=urn:btih:5a17afc5e92faf0a3c1a8828d4a67cc60fdcac73&amp;dn=Ip+Man+2+Legend+of+the+Grandmaster+%282010%29+720p+Blu-Ray+x264%5BDual&amp;tr=udp%3A%2F%2Ftracker.openbittorrent.com%3A80&amp;tr=udp%3A%2F%2Fopen.demonii.com%3A1337&amp;tr=udp%3A%2F%2Ftracker.coppersurfer.tk%3A6969&amp;tr=udp%3A%2F%2Fexodus.desync.com%3A6969","seeders":20,"leechers":7,"uploader":"inovai","files":3,"time":1409319310,"description":"\nIp Man 2 Legend of the Grandmaster (2010) 720p Blu-Ray x264[Dual-Audio][English 5.1 + Hindi] - Mafiaking - TeamTNT\n\nGENRE: Action | Biography | Drama\n\nScreenshots:\n &lt;a href=&quot;\nhttp://img.primetimeshow.in/share.php?id=4C70_5400643C&quot; rel=&quot;nofollow&quot; target=&quot;_NEW&quot;&gt;\nhttp://img.primetimeshow.in/share.php?id=4C70_5400643C&lt;/a&gt;\n &lt;a href=&quot;\nhttp://img.primetimeshow.in/share.php?id=5FCD_5400643C&quot; rel=&quot;nofollow&quot; target=&quot;_NEW&quot;&gt;\nhttp://img.primetimeshow.in/share.php?id=5FCD_5400643C&lt;/a&gt;\n &lt;a href=&quot;\nhttp://img.primetimeshow.in/share.php?id=D8E6_5400643C&quot; rel=&quot;nofollow&quot; target=&quot;_NEW&quot;&gt;\nhttp://img.primetimeshow.in/share.php?id=D8E6_5400643C&lt;/a&gt;\n &lt;a href=&quot;\nhttp://img.primetimeshow.in/share.php?id=288E_5400643C&quot; rel=&quot;nofollow&quot; target=&quot;_NEW&quot;&gt;\nhttp://img.primetimeshow.in/share.php?id=288E_5400643C&lt;/a&gt;\n &lt;a href=&quot;\nhttp://img.primetimeshow.in/share.php?id=B94F_5400643C&quot; rel=&quot;nofollow&quot; target=&quot;_NEW&quot;&gt;\nhttp://img.primetimeshow.in/share.php?id=B94F_5400643C&lt;/a&gt;\n\nGeneral\nUnique ID : 184203594662737003321207035571409857077 (0x8A945266E3C869E5B986CDEACB052A35)\nComplete name : Ip Man 2 Legend of the Grandmaster (2010) 720p Blu-Ray x264[Dual-Audio][English 5.1 + Hindi] - Mafiaking - TeamTNT.mkv\nFormat : Matroska\nFormat version : Version 4 / Version 2\nFile size : 984 MiB\nDuration : 1h 48mn\nOverall bit rate : 1 272 Kbps\nMovie name : Ip Man 2 Legend of the Grandmaster (2010) 720p Blu-Ray x264[Dual-Audio][English 5.1 + Hindi] - Mafiaking - TeamTNT\nEncoded date : UTC 2014-08-28 17:41:25\nWriting application : mkvmerge v7.0.0 ('Where We Going') 32bit built on Jun 9 2014 15:08:34\nWriting library : libebml v1.3.0 + libmatroska v1.4.1\n\n\nVideo\nID : 1\nFormat : AVC\nFormat/Info : Advanced Video Codec\nFormat profile : &lt;a class=&quot;__cf_email__&quot; href=&quot;/cdn-cgi/l/email-protection&quot; data-cfemail=&quot;98d0f1fff0d8d4abb6a9&quot;&gt;[email&amp;#160;protected]&lt;/a&gt;&lt;script cf-hash='f9e31' type=&quot;text/javascript&quot;&gt;\n/* &lt;![CDATA[ */!function(){try{var t=&quot;currentScript&quot;in document?document.currentScript:function(){for(var t=document.getElementsByTagName(&quot;script&quot;),e=t.length;e--;)if(t[e].getAttribute(&quot;cf-hash&quot;))return t[e]}();if(t&amp;&amp;t.previousSibling){var e,r,n,i,c=t.previousSibling,a=c.getAttribute(&quot;data-cfemail&quot;);if(a){for(e=&quot;&quot;,r=parseInt(a.substr(0,2),16),n=2;a.length-n;n+=2)i=parseInt(a.substr(n,2),16)^r,e+=String.fromCharCode(i);e=document.createTextNode(e),c.parentNode.replaceChild(e,c)}}}catch(u){}}();/* ]]&gt; */&lt;/script&gt;\nFormat settings, CABAC : Yes\nFormat settings, ReFrames : 4 frames\nCodec ID : V_MPEG4/ISO/AVC\nDuration : 1h 48mn\nBit rate : 950 Kbps\nWidth : 1 280 pixels\nHeight : 544 pixels\nDisplay aspect ratio : 2.35:1\nFrame rate mode : Constant\nFrame rate : 24.000 fps\nColor space : YUV\nChroma subsampling : 4:2:0\nBit depth : 8 bits\nScan type : Progressive\nBits/(Pixel*Frame) : 0.057\nStream size : 717 MiB (73%)\nTitle : Mafiaking\nWriting library : x264 core 142 r2431 ac76440\nLanguage : English\nDefault : Yes\nForced : No\n\n\nAudio #1\nID : 2\nFormat : AC-3\nFormat/Info : Audio Coding 3\nMode extension : CM (complete main)\nFormat settings, Endianness : Big\nCodec ID : A_AC3\nDuration : 1h 48mn\nBit rate mode : Constant\nBit rate : 128 Kbps\nChannel(s) : 2 channels\nChannel positions : Front: L R\nSampling rate : 48.0 KHz\nBit depth : 16 bits\nCompression mode : Lossy\nStream size : 99.0 MiB (10%)\nTitle : Mafiaking\nLanguage : Hindi\nDefault : Yes\nForced : No\n\n\nAudio #2\nID : 3\nFormat : AC-3\nFormat/Info : Audio Coding 3\nMode extension : CM (complete main)\nFormat settings, Endianness : Big\nCodec ID : A_AC3\nDuration : 1h 48mn\nBit rate mode : Constant\nBit rate : 192 Kbps\nChannel(s) : 6 channels\nChannel positions : Front: L C R, Side: L R, LFE\nSampling rate : 48.0 KHz\nBit depth : 16 bits\nCompression mode : Lossy\nStream size : 148 MiB (15%)\nTitle : Mafiaking\nLanguage : English\nDefault : No\nForced : No\n\n\n\n\n\n\nSAMPLE WITH IN TORRENT","torrent":{"xt":"urn:btih:5a17afc5e92faf0a3c1a8828d4a67cc60fdcac73","amp;dn":"Ip+Man+2+Legend+of+the+Grandmaster+%282010%29+720p+Blu-Ray+x264%5BDual","amp;tr":["udp%3A%2F%2Ftracker.openbittorrent.com%3A80","udp%3A%2F%2Fopen.demonii.com%3A1337","udp%3A%2F%2Ftracker.coppersurfer.tk%3A6969","udp%3A%2F%2Fexodus.desync.com%3A6969"],"infoHash":"5a17afc5e92faf0a3c1a8828d4a67cc60fdcac73","infoHashBuffer":{"type":"Buffer","data":[90,23,175,197,233,47,175,10,60,26,136,40,212,166,124,198,15,220,172,115]},"announce":[],"urlList":[]}}